<?xml version="1.0" standalone="no"?>
<!DOCTYPE svg PUBLIC "-//W3C//DTD SVG 20010904//EN"
 "http://www.w3.org/TR/2001/REC-SVG-20010904/DTD/svg10.dtd">
<svg version="1.0" xmlns="http://www.w3.org/2000/svg"
 width="928.000000pt" height="1280.000000pt" viewBox="0 0 928.000000 1280.000000"
 preserveAspectRatio="xMidYMid meet">
<metadata>
Created by potrace 1.15, written by Peter Selinger 2001-2017
</metadata>
<g transform="translate(0.000000,1280.000000) scale(0.100000,-0.100000)"
fill="#000000" stroke="none">
<path d="M710 12739 c-58 -50 -79 -62 -120 -68 -28 -4 -58 -15 -68 -23 -9 -9
-27 -19 -39 -22 -29 -9 -93 -136 -93 -184 0 -30 -2 -33 -22 -26 -56 16 -87 36
-139 86 -60 57 -131 98 -171 98 -30 0 -71 -40 -49 -48 16 -5 153 -125 191
-167 14 -15 50 -44 80 -65 30 -21 89 -73 130 -115 41 -42 121 -114 177 -161
56 -46 112 -99 124 -117 110 -157 550 -616 719 -751 81 -64 139 -104 452 -308
179 -117 249 -177 540 -464 l250 -245 -13 -110 c-15 -143 -9 -208 31 -292 29
-62 32 -75 27 -130 -9 -96 -31 -144 -97 -213 -77 -80 -85 -101 -65 -170 17
-60 31 -73 21 -20 -9 49 6 78 79 156 72 76 135 192 135 246 0 17 -12 58 -26
89 -26 56 -27 63 -21 189 3 72 10 142 15 156 9 23 9 23 19 5 6 -11 13 -61 15
-111 6 -98 12 -114 70 -187 48 -61 51 -100 10 -121 -50 -26 -55 -38 -38 -95
13 -46 13 -57 0 -103 -23 -77 -96 -190 -144 -222 -65 -43 -74 -65 -60 -139 17
-93 27 -101 36 -29 5 45 16 77 39 114 l33 52 12 -26 c10 -21 9 -49 -4 -136
-20 -139 -20 -208 0 -313 29 -154 101 -300 170 -346 29 -19 96 -21 102 -4 2 6
11 11 20 11 15 -1 15 -2 0 -11 -17 -9 -17 -13 -3 -47 9 -20 32 -51 52 -68 40
-34 39 -45 -9 -70 -24 -13 -51 -15 -117 -12 l-86 5 45 -20 c65 -29 144 -28
199 3 51 29 61 46 32 55 -12 3 -21 13 -21 21 0 12 4 12 25 -2 14 -9 25 -20 25
-24 0 -4 7 -11 16 -14 14 -5 14 -4 5 7 -9 11 -7 24 9 58 24 53 25 112 5 247
-12 76 -13 117 -6 162 10 61 41 143 58 153 23 15 30 -228 9 -343 -15 -85 -7
-201 17 -247 8 -15 27 -39 43 -53 l27 -25 -21 30 c-42 60 -53 170 -27 290 16
77 19 225 6 294 l-9 45 19 -25 c10 -13 33 -60 50 -104 29 -74 31 -86 25 -160
-16 -220 -17 -251 -3 -305 l14 -55 -4 70 c-4 56 2 102 31 229 20 88 38 161 41
164 10 11 55 -143 55 -190 0 -15 -11 -62 -24 -105 -35 -112 -39 -138 -30 -196
l8 -52 7 85 c4 47 17 112 29 145 33 94 40 146 29 217 -5 34 -12 71 -15 81 -6
18 -4 18 28 2 44 -23 98 -75 98 -95 0 -10 -16 -33 -35 -53 -39 -40 -40 -67 -6
-117 22 -31 78 -70 100 -70 10 1 6 6 -11 16 -63 34 -76 118 -27 177 17 20 34
37 38 37 5 0 6 -20 4 -45 -5 -38 -1 -51 26 -92 28 -41 31 -54 26 -88 -5 -36
-2 -44 22 -67 32 -29 73 -53 73 -41 0 4 -7 17 -16 28 -11 15 -13 33 -8 72 5
46 3 59 -24 106 -30 52 -38 102 -33 202 1 38 3 35 31 -46 16 -48 45 -117 65
-155 49 -91 47 -147 -9 -222 -41 -56 -36 -67 24 -57 27 5 64 25 109 61 l70 54
26 -32 27 -33 -8 30 c-4 17 -9 73 -10 125 -1 52 -6 110 -13 129 -6 19 -9 36
-7 38 7 7 66 -68 72 -93 4 -14 2 -55 -4 -90 -9 -52 -8 -76 4 -121 15 -58 24
-78 24 -52 0 31 53 238 60 234 19 -12 15 -50 -11 -106 -16 -33 -29 -68 -29
-78 0 -9 14 -32 30 -51 19 -22 27 -27 20 -13 -17 36 -12 75 16 114 32 47 43
94 44 182 0 73 -17 119 -68 179 -61 73 -61 72 -17 54 73 -31 81 -44 115 -195
23 -103 21 -126 -16 -186 l-25 -40 45 47 c35 35 46 55 47 80 1 31 2 30 16 -17
19 -63 27 -72 71 -85 42 -11 56 -5 19 9 -37 14 -55 48 -73 132 -8 41 -31 126
-49 190 -34 113 -43 156 -27 133 4 -6 26 -27 49 -48 39 -35 43 -36 61 -20 18
15 19 28 17 170 -3 146 -2 153 15 144 24 -13 34 -81 21 -140 -5 -24 -8 -46 -6
-49 9 -8 38 75 43 122 4 38 8 47 21 43 119 -34 162 -45 191 -51 19 -4 73 -26
120 -50 47 -23 103 -45 125 -49 22 -4 60 -21 85 -38 25 -17 46 -32 48 -33 1
-1 -5 -22 -14 -46 -8 -24 -19 -80 -24 -124 -5 -44 -17 -123 -26 -175 -26 -137
-26 -472 0 -590 54 -251 140 -422 271 -537 54 -47 57 -52 86 -153 53 -186 112
-290 228 -405 60 -59 60 -60 87 -170 17 -72 28 -145 29 -211 2 -56 8 -119 14
-140 6 -22 11 -126 11 -234 0 -196 18 -483 44 -718 10 -87 15 -265 17 -562 l3
-435 -53 -169 c-147 -478 -166 -866 -60 -1241 49 -177 69 -472 69 -1034 l0
-377 -29 -45 c-16 -24 -56 -71 -91 -104 -72 -70 -102 -122 -102 -179 -2 -91
33 -127 373 -393 86 -67 164 -133 173 -148 31 -47 64 -149 92 -281 14 -71 35
-145 45 -165 40 -79 111 -109 227 -95 32 4 127 11 212 16 175 9 223 22 270 76
49 57 54 119 10 141 -17 9 -74 13 -173 13 -156 0 -206 11 -225 47 -5 10 -12
47 -16 83 -13 136 -58 391 -93 535 l-36 150 -3 300 c-4 401 28 929 81 1350 39
304 47 458 47 835 l-1 355 36 95 c44 119 93 310 128 505 21 114 38 175 72 254
121 285 204 623 244 990 l12 115 71 96 c39 52 110 156 159 231 48 75 103 153
121 172 23 25 38 53 45 87 22 102 189 317 500 645 158 165 444 494 566 650 43
55 129 177 191 271 79 120 128 184 166 217 57 49 229 283 291 397 48 88 77
179 77 240 0 97 -82 295 -159 382 -47 53 -137 115 -194 135 -125 43 -439 54
-759 28 -264 -22 -462 -54 -778 -125 -47 -10 -121 -26 -165 -36 -44 -9 -169
-45 -277 -80 -109 -35 -204 -64 -211 -64 -7 0 -54 90 -107 208 -166 369 -292
611 -429 827 -68 107 -78 129 -94 209 -25 125 -69 230 -128 309 -28 37 -55 67
-60 67 -5 0 -9 5 -9 10 0 6 6 10 13 10 20 0 130 46 221 92 150 75 353 221 531
382 163 148 258 209 430 276 406 161 824 383 1150 614 120 85 115 84 440 96
248 9 277 6 357 -30 47 -21 137 -27 169 -10 26 15 24 42 -6 73 -23 23 -102 52
-232 86 -60 16 -83 39 -90 89 -5 41 -4 45 40 87 40 37 56 46 124 60 97 22 116
31 110 55 -3 13 3 22 25 31 34 14 52 42 43 69 -9 28 -41 26 -186 -15 -68 -20
-168 -44 -221 -55 -100 -20 -130 -32 -230 -93 -67 -40 -191 -80 -298 -96 -61
-10 -116 -31 -300 -117 -271 -128 -344 -157 -565 -224 -188 -57 -236 -73 -407
-136 -148 -55 -203 -83 -270 -137 -30 -24 -80 -52 -115 -64 -35 -12 -172 -84
-305 -161 -306 -175 -391 -221 -503 -270 -89 -39 -91 -39 -245 -45 -99 -3
-179 -11 -220 -22 -103 -27 -238 -96 -383 -194 -73 -50 -141 -91 -151 -91 -9
0 -30 -7 -46 -15 -15 -8 -53 -18 -83 -21 l-55 -7 -79 79 c-98 98 -158 188
-312 471 -187 344 -236 418 -347 524 -119 113 -209 151 -366 154 l-106 3 -62
42 c-34 23 -87 53 -117 67 -114 53 -231 17 -487 -147 -125 -80 -187 -106 -276
-116 -102 -11 -46 -29 90 -28 108 0 122 3 235 42 149 52 206 60 260 37 25 -11
34 -19 25 -22 -100 -30 -194 -97 -300 -213 -143 -157 -266 -225 -427 -237 -73
-6 -101 -22 -40 -24 17 -1 79 -4 137 -8 l105 -7 -65 -31 c-158 -75 -336 -106
-460 -81 -41 9 -76 14 -78 13 -2 -2 33 -17 78 -34 102 -40 216 -66 349 -82
l104 -13 -39 -13 c-21 -8 -87 -27 -146 -42 l-106 -28 146 -43 c81 -24 170 -46
199 -48 l52 -4 -5 -92 c-4 -50 -2 -115 4 -143 5 -29 8 -53 6 -53 -2 0 -106 78
-231 174 -183 140 -236 185 -268 232 -52 75 -123 132 -281 223 -71 41 -316
201 -545 357 l-417 284 -11 47 c-26 101 -68 146 -220 230 l-53 30 36 28 c45
34 92 31 155 -10 25 -17 56 -28 79 -29 36 -1 37 0 40 37 4 51 -11 67 -103 107
l-74 32 49 57 c50 58 60 87 38 109 -21 21 -35 14 -108 -49z m2176 -3835 c-21
-99 -20 -167 1 -227 24 -66 75 -124 109 -124 25 0 26 1 21 41 -4 23 -3 52 0
65 5 21 60 58 70 47 3 -3 16 -58 30 -123 23 -116 35 -275 20 -289 -12 -12 -44
25 -66 77 -28 65 -45 151 -31 159 6 4 -2 7 -18 7 l-29 0 12 -59 c12 -57 12
-58 -10 -58 -23 0 -90 41 -113 69 -31 37 -65 128 -79 209 -13 74 -13 108 -3
221 6 74 14 140 17 147 3 9 19 -3 45 -36 l40 -50 -16 -76z m1553 62 c32 -86
54 -276 32 -276 -14 0 -86 90 -110 138 -12 24 -31 80 -42 125 -11 45 -22 90
-25 99 -4 14 5 13 60 -9 63 -25 67 -29 85 -77z m-1461 -108 c26 -75 27 -103 6
-154 -11 -26 -14 -53 -10 -81 3 -24 4 -43 1 -43 -3 0 -17 24 -32 53 -22 42
-27 66 -28 122 0 67 20 165 34 165 4 0 17 -28 29 -62z m4368 -1279 l-15 -34
-1 32 c0 17 6 33 13 36 18 7 19 3 3 -34z"/>
<path d="M4483 8644 c-11 -29 82 -107 158 -133 68 -23 139 -27 170 -11 17 10
49 59 49 77 0 4 -13 -8 -29 -27 -26 -31 -34 -35 -78 -34 -64 1 -149 40 -213
100 -43 40 -51 44 -57 28z"/>
<path d="M4456 8615 c-9 -26 -7 -32 5 -12 6 10 9 21 6 23 -2 3 -7 -2 -11 -11z"/>
</g>
</svg>
