<?xml version="1.0" standalone="no"?>
<!DOCTYPE svg PUBLIC "-//W3C//DTD SVG 20010904//EN"
 "http://www.w3.org/TR/2001/REC-SVG-20010904/DTD/svg10.dtd">
<svg version="1.0" xmlns="http://www.w3.org/2000/svg"
 width="1013.000000pt" height="1280.000000pt" viewBox="0 0 1013.000000 1280.000000"
 preserveAspectRatio="xMidYMid meet">
<metadata>
Created by potrace 1.15, written by Peter Selinger 2001-2017
</metadata>
<g transform="translate(0.000000,1280.000000) scale(0.100000,-0.100000)"
fill="#000000" stroke="none">
<path d="M4890 12490 c-12 -7 -14 -26 -12 -87 3 -73 6 -84 62 -189 68 -127 74
-160 34 -207 -17 -21 -24 -37 -20 -53 3 -13 2 -26 -4 -29 -5 -3 -15 -26 -21
-51 -6 -24 -15 -44 -19 -44 -4 0 -42 16 -84 36 -86 41 -124 39 -140 -9 -12
-34 2 -46 95 -82 36 -14 84 -40 105 -58 85 -70 126 -99 155 -109 27 -9 30 -14
23 -37 -4 -14 -7 -62 -8 -106 -1 -56 -6 -90 -18 -112 -19 -35 -23 -91 -9 -138
6 -22 3 -51 -10 -100 -10 -39 -19 -83 -19 -98 0 -37 -22 -146 -71 -347 -45
-187 -50 -257 -28 -463 10 -103 10 -135 0 -163 -7 -18 -10 -38 -7 -42 3 -5 7
-67 10 -138 4 -123 18 -278 52 -594 21 -188 22 -242 8 -310 -13 -60 -41 -137
-58 -159 -6 -8 -12 -24 -13 -35 -3 -41 -38 -123 -66 -152 -29 -31 -47 -80 -47
-131 0 -61 -47 -99 -335 -278 -101 -62 -180 -138 -209 -199 -55 -117 -36 -287
54 -465 88 -175 101 -270 106 -726 1 -176 7 -360 14 -409 14 -116 55 -319 75
-375 28 -81 33 -77 -132 -84 -155 -6 -323 -31 -483 -72 -52 -13 -102 -23 -110
-23 -26 1 -382 -101 -460 -132 -55 -21 -92 -29 -140 -30 -74 -1 -138 -25 -185
-70 -18 -17 -57 -38 -97 -50 -125 -38 -221 -130 -293 -280 -40 -86 -43 -115
-20 -271 26 -171 87 -271 199 -328 51 -25 226 -76 297 -87 24 -3 69 -18 99
-33 40 -19 71 -26 115 -26 33 0 70 -6 82 -13 12 -6 35 -12 52 -12 19 0 43 -11
64 -30 25 -22 45 -30 71 -30 23 0 52 -10 76 -26 29 -19 61 -29 108 -34 167
-19 440 -103 503 -156 38 -32 92 -54 132 -54 11 0 30 -9 44 -20 15 -12 41 -20
63 -20 46 0 53 -9 76 -85 17 -57 22 -117 27 -282 2 -66 5 -74 34 -105 45 -46
80 -180 63 -234 -12 -35 -11 -37 29 -78 46 -47 48 -58 24 -128 -18 -48 -18
-49 5 -88 25 -44 28 -84 8 -119 -12 -22 -11 -28 7 -53 29 -39 36 -176 13 -232
-21 -51 -20 -60 9 -92 16 -17 25 -39 25 -60 0 -18 5 -45 11 -61 6 -15 15 -75
20 -133 20 -225 22 -290 9 -334 -10 -35 -9 -48 1 -67 8 -13 15 -55 16 -94 1
-38 4 -144 7 -235 3 -91 7 -222 9 -291 3 -107 7 -132 25 -160 11 -19 29 -61
40 -94 12 -33 34 -92 50 -130 17 -39 42 -125 56 -193 14 -68 35 -139 46 -158
16 -25 20 -42 15 -64 -9 -39 8 -60 46 -60 47 0 72 49 64 126 -4 45 -1 71 11
100 13 30 18 81 21 214 5 220 17 261 109 361 23 25 49 60 58 77 36 69 9 154
-57 186 -20 9 -38 20 -41 24 -2 4 0 31 5 59 7 36 6 59 -1 73 -8 16 -5 31 15
75 21 44 26 68 25 132 0 43 -1 98 0 123 0 25 -1 74 -2 110 0 36 7 94 17 130
10 36 20 85 23 110 2 25 14 59 26 75 15 22 22 47 23 95 3 91 11 128 39 181 31
61 30 81 -6 122 -24 28 -32 52 -49 145 -15 80 -18 119 -11 143 8 26 6 39 -10
66 -14 23 -20 52 -20 91 0 70 -23 148 -52 179 -20 21 -22 36 -26 161 -5 208
-5 244 3 280 7 32 9 33 42 27 18 -3 61 -15 95 -26 74 -23 137 -24 203 -1 62
21 68 43 25 97 -40 50 -77 75 -112 75 -16 0 -47 14 -71 33 -24 17 -71 46 -105
62 -65 32 -71 43 -50 92 13 32 14 53 22 393 7 259 14 317 46 380 11 22 20 46
20 53 0 9 25 24 59 37 163 61 308 213 352 370 56 200 -65 551 -264 768 -90 97
-167 221 -182 291 -10 49 4 159 22 174 9 7 33 29 54 50 21 20 43 37 48 37 6 0
22 17 38 38 15 20 38 48 53 62 31 32 110 131 170 215 85 119 292 341 359 386
35 23 56 29 97 29 69 0 84 -13 227 -199 115 -147 285 -348 364 -428 23 -23 72
-82 109 -130 131 -169 149 -186 358 -336 61 -44 142 -111 179 -148 44 -44 92
-80 133 -100 46 -23 73 -45 97 -78 19 -25 46 -53 62 -61 16 -8 40 -26 54 -40
14 -14 43 -40 64 -58 l38 -33 -13 -72 c-16 -84 -16 -205 0 -297 7 -36 12 -113
12 -172 0 -60 4 -108 9 -108 5 0 21 4 35 10 43 16 56 57 56 175 0 128 10 140
69 76 21 -22 43 -41 49 -41 22 0 52 -60 67 -131 9 -41 22 -95 31 -121 12 -37
13 -55 5 -85 -18 -63 -14 -111 9 -123 18 -10 22 -7 36 26 11 27 18 34 27 25
13 -13 67 -15 67 -2 0 5 -7 24 -15 44 -10 25 -12 43 -5 63 46 143 48 152 43
240 l-6 89 22 -19 c12 -11 35 -43 51 -71 39 -68 71 -97 104 -93 l25 3 -28 45
c-15 25 -35 64 -44 87 -9 23 -32 64 -52 91 -19 27 -35 54 -35 60 0 6 -10 28
-22 49 -42 74 -48 88 -48 113 0 30 -9 44 -36 58 -13 7 -30 36 -43 74 -37 105
-69 165 -102 190 -51 39 -73 64 -96 110 -15 29 -34 50 -56 60 -24 11 -36 25
-40 45 -3 17 -16 35 -31 42 -32 18 -283 280 -318 335 -15 22 -32 46 -38 51 -5
6 -29 30 -52 55 -149 155 -258 258 -288 272 -60 28 -179 164 -268 303 -17 28
-45 66 -62 85 -16 19 -33 44 -36 54 -4 11 -26 43 -50 72 -49 61 -108 150 -180
273 -58 100 -203 258 -284 309 -99 64 -288 211 -314 245 -26 34 -46 110 -46
173 0 37 57 114 70 94 4 -7 13 -2 24 14 17 28 42 34 48 14 3 -9 12 -8 31 5 15
10 27 14 27 10 1 -5 7 3 14 17 8 14 12 29 9 33 -3 5 4 15 16 23 12 8 21 22 21
30 0 8 5 14 11 14 6 0 9 -7 5 -15 -3 -8 -3 -15 0 -15 3 0 10 14 16 30 7 21 25
38 57 55 25 13 77 54 115 91 53 51 71 63 78 53 6 -10 8 -2 4 22 -5 26 -1 42
12 60 11 13 22 31 25 39 3 8 6 2 6 -15 2 -42 21 -11 21 33 0 25 5 35 19 39 23
6 31 57 31 202 -1 71 -6 116 -15 136 -13 26 -14 27 -10 5 5 -23 4 -22 -11 5
-9 17 -24 38 -32 48 -10 11 -17 39 -18 71 -2 57 -29 112 -88 175 -33 36 -113
91 -130 91 -6 -1 2 -8 17 -16 37 -20 28 -30 -10 -11 -34 17 -138 43 -213 53
-45 6 -50 9 -30 15 17 5 5 7 -38 8 -35 1 -61 -3 -58 -8 3 -4 -27 -11 -67 -14
-67 -5 -178 -45 -150 -54 7 -3 -13 -30 -44 -61 -56 -59 -73 -87 -79 -135 -4
-32 -61 -107 -81 -107 -9 0 -12 -7 -8 -23 3 -12 -5 -51 -20 -90 -17 -46 -25
-87 -25 -130 0 -36 -5 -68 -12 -75 -7 -7 -9 -12 -5 -12 4 0 1 -14 -8 -30 -11
-22 -13 -35 -6 -49 7 -12 7 -30 1 -52 -15 -51 -13 -68 5 -45 17 23 20 14 4
-15 -8 -16 -7 -29 5 -54 9 -18 16 -42 16 -53 0 -27 -48 -180 -59 -186 -4 -3
-7 39 -7 92 0 91 -3 106 -52 250 -51 147 -75 258 -117 532 -24 160 -21 428 5
510 13 43 31 430 21 485 -3 22 -2 74 3 115 9 81 11 136 7 215 -1 28 0 78 4
112 5 38 2 88 -5 130 -7 37 -14 114 -16 171 -5 135 -25 224 -73 330 -21 48
-44 104 -50 124 -7 20 -19 42 -27 48 -7 7 -14 19 -14 26 0 8 -9 23 -19 33 -11
11 -27 31 -36 44 -18 28 -55 262 -55 350 0 39 -4 57 -12 57 -34 -1 -58 -42
-58 -98 0 -22 -3 -54 -6 -72 -7 -31 -8 -30 -40 44 -19 42 -36 87 -40 101 -7
27 -11 29 -34 15z m-460 -7603 c3 -67 4 -124 3 -126 -2 -3 -9 1 -15 7 -7 7
-21 12 -33 12 -22 0 -199 101 -249 143 l-29 23 154 35 c85 20 156 34 159 32 2
-2 7 -59 10 -126z"/>
</g>
</svg>
