<?xml version="1.0" standalone="no"?>
<!DOCTYPE svg PUBLIC "-//W3C//DTD SVG 20010904//EN"
 "http://www.w3.org/TR/2001/REC-SVG-20010904/DTD/svg10.dtd">
<svg version="1.0" xmlns="http://www.w3.org/2000/svg"
 width="1280.000000pt" height="960.000000pt" viewBox="0 0 1280.000000 960.000000"
 preserveAspectRatio="xMidYMid meet">
<metadata>
Created by potrace 1.15, written by Peter Selinger 2001-2017
</metadata>
<g transform="translate(0.000000,960.000000) scale(0.100000,-0.100000)"
fill="#000000" stroke="none">
<path d="M6517 9273 c-4 -3 -7 -22 -7 -42 -1 -48 -58 -109 -131 -140 -30 -13
-58 -27 -63 -31 -5 -5 -10 -59 -12 -119 -1 -61 -7 -126 -13 -143 -6 -18 -46
-143 -90 -278 -105 -324 -114 -367 -131 -630 -13 -220 -40 -392 -62 -408 -10
-7 -34 -47 -53 -88 -32 -69 -35 -81 -35 -172 0 -74 5 -110 21 -152 23 -60 22
-97 -5 -247 -35 -186 -48 -346 -42 -480 6 -135 11 -171 45 -303 11 -41 24 -95
30 -120 5 -25 28 -92 50 -150 23 -58 50 -140 61 -182 25 -98 54 -347 47 -413
-9 -93 -62 -205 -162 -349 -154 -220 -205 -347 -206 -511 0 -97 18 -167 76
-301 53 -122 59 -147 80 -334 19 -173 63 -446 107 -660 28 -136 32 -175 33
-315 0 -159 0 -161 -34 -245 -54 -133 -71 -213 -78 -350 -6 -142 10 -252 53
-367 14 -37 53 -174 86 -303 64 -251 80 -374 60 -452 -70 -272 -119 -701 -87
-745 8 -10 15 -13 16 -8 0 6 4 -1 8 -15 4 -14 17 -29 29 -35 12 -5 20 -15 18
-21 -6 -17 24 -56 38 -51 7 3 18 -4 25 -15 8 -13 19 -18 32 -15 13 3 28 -2 40
-14 25 -25 46 -21 72 13 27 36 39 186 32 373 -6 128 1 238 32 504 3 24 0 77
-6 116 -7 40 -16 167 -21 281 -5 115 -14 318 -21 452 -15 287 -4 475 35 613
105 370 103 347 112 1032 l6 517 62 0 c33 0 96 5 139 12 94 14 234 2 438 -38
105 -21 163 -26 267 -26 l133 1 -54 -58 c-29 -32 -66 -80 -82 -107 -77 -132
-357 -464 -391 -464 -6 0 -19 11 -28 25 -23 35 -75 65 -111 65 -72 0 -106 -44
-156 -205 -17 -55 -56 -149 -87 -209 -30 -60 -58 -123 -61 -140 -5 -21 -13
-32 -28 -34 -11 -2 -31 -14 -44 -28 -18 -20 -21 -29 -13 -42 15 -23 126 -30
157 -9 12 8 40 17 62 21 49 10 89 30 140 72 22 18 72 44 110 59 102 38 161 81
313 230 244 238 561 475 740 554 255 112 321 160 373 269 63 133 -15 323 -167
404 -27 15 -135 56 -240 92 -104 35 -247 85 -319 110 -219 75 -584 160 -738
172 l-98 7 6 26 c25 99 35 170 35 267 0 130 9 183 52 319 17 55 37 125 43 155
10 50 15 57 54 79 37 20 93 81 103 112 2 6 26 0 53 -13 46 -21 63 -23 210 -22
135 1 192 7 365 37 273 47 330 53 330 34 0 -8 20 -40 45 -72 24 -32 65 -101
91 -154 53 -110 88 -161 111 -161 20 0 14 34 -20 115 -34 80 -42 115 -27 115
6 0 36 -51 65 -113 55 -115 76 -144 95 -132 17 10 12 38 -25 142 -50 136 -51
144 -17 95 16 -24 37 -71 47 -105 9 -34 22 -74 27 -89 10 -27 33 -42 49 -32
13 8 11 72 -6 134 -18 66 -17 60 -6 60 5 0 14 -13 21 -29 16 -40 43 -63 65
-55 23 9 15 46 -35 147 -69 142 -93 166 -275 278 l-70 44 -185 6 c-118 5 -247
17 -355 34 -129 19 -199 25 -290 23 -120 -3 -121 -3 -170 28 -28 18 -91 53
-142 79 -73 37 -108 63 -170 126 -43 44 -96 88 -119 99 -30 15 -46 32 -60 61
-11 25 -33 51 -55 64 -34 22 -38 31 -59 114 -27 111 -29 151 -7 185 15 22 24
26 70 26 70 1 126 15 149 38 15 14 20 38 24 102 2 45 7 87 10 91 3 5 0 17 -5
28 -8 14 -6 22 9 36 11 10 20 23 20 29 0 6 -27 36 -60 68 -53 50 -60 61 -60
96 0 52 -23 125 -54 173 -31 45 -34 64 -6 30 11 -13 20 -20 20 -15 0 4 -11 20
-25 34 -24 25 -25 29 -14 77 14 60 7 87 -19 79 -14 -5 -22 1 -32 21 -7 16 -15
23 -17 16 -5 -13 -34 -6 -45 11 -6 8 -11 6 -17 -3 -8 -12 -12 -12 -24 -2 -9 6
-18 8 -21 3 -4 -7 -39 -8 -56 -2 -3 1 -8 2 -12 1 -5 0 -8 7 -8 16 -1 17 -2 17
-15 -1 -7 -10 -18 -15 -24 -12 -5 4 -12 2 -16 -4 -37 -60 -31 189 14 560 38
315 54 406 84 495 21 63 28 71 67 92 67 36 81 52 78 92 -1 20 -8 47 -15 61 -9
18 -9 37 -2 69 6 28 6 55 0 75 -5 17 -12 59 -15 94 -3 35 -10 72 -16 82 -11
20 -31 26 -43 13z m-252 -9073 c-4 -17 -9 -29 -12 -26 -3 2 -2 19 2 36 4 17 9
29 12 26 3 -2 2 -19 -2 -36z"/>
</g>
</svg>
