<?xml version="1.0" standalone="no"?>
<!DOCTYPE svg PUBLIC "-//W3C//DTD SVG 20010904//EN"
 "http://www.w3.org/TR/2001/REC-SVG-20010904/DTD/svg10.dtd">
<svg version="1.0" xmlns="http://www.w3.org/2000/svg"
 width="768.000000pt" height="1280.000000pt" viewBox="0 0 768.000000 1280.000000"
 preserveAspectRatio="xMidYMid meet">
<metadata>
Created by potrace 1.15, written by Peter Selinger 2001-2017
</metadata>
<g transform="translate(0.000000,1280.000000) scale(0.100000,-0.100000)"
fill="#000000" stroke="none">
<path d="M639 12639 c-25 -48 -4 -102 81 -213 17 -21 30 -42 30 -46 0 -4 -21
3 -47 16 -25 13 -55 24 -66 24 -11 0 -68 16 -127 35 -146 47 -211 49 -225 5
-5 -17 -8 -17 -55 3 -60 25 -102 16 -110 -23 -4 -20 -11 -25 -34 -25 -16 0
-33 -7 -40 -17 -8 -14 -5 -23 17 -46 15 -15 27 -34 27 -40 0 -16 147 -165 240
-243 43 -36 111 -79 160 -102 98 -47 252 -139 293 -176 16 -14 37 -42 47 -61
23 -43 83 -110 98 -110 7 0 12 -4 12 -10 0 -5 48 -60 108 -122 297 -311 417
-428 527 -516 149 -119 265 -230 363 -346 42 -49 103 -109 136 -133 59 -43
233 -226 568 -597 89 -99 198 -218 243 -266 114 -122 214 -242 349 -419 64
-84 158 -199 207 -255 93 -104 176 -246 163 -279 -3 -9 4 -28 15 -44 30 -41
65 -245 112 -638 6 -49 9 -135 6 -190 -4 -89 -11 -117 -60 -255 -32 -92 -75
-190 -105 -240 -28 -47 -63 -118 -78 -157 -15 -40 -32 -73 -37 -73 -13 0 -47
-40 -47 -54 0 -6 5 -4 10 4 9 13 10 13 10 0 0 -21 -39 -119 -40 -98 0 9 5 29
10 44 17 44 4 39 -24 -9 -25 -42 -35 -97 -18 -97 5 0 14 10 21 22 11 23 11 23
6 -2 -3 -14 -13 -68 -21 -120 -15 -96 -71 -348 -125 -563 -16 -65 -43 -188
-59 -273 -26 -135 -30 -178 -30 -322 0 -109 6 -196 16 -252 13 -68 17 -179 20
-550 3 -463 11 -651 40 -955 39 -415 46 -532 50 -840 6 -544 24 -750 95 -1140
43 -236 159 -635 219 -755 20 -40 49 -73 99 -115 79 -66 101 -93 101 -127 0
-12 9 -32 21 -44 l21 -22 -60 -79 c-75 -98 -100 -120 -188 -171 -39 -23 -90
-56 -112 -74 -22 -18 -61 -45 -86 -60 -60 -36 -85 -83 -66 -128 7 -17 32 -52
56 -77 33 -36 47 -45 67 -41 18 4 32 -3 52 -23 14 -16 41 -32 58 -37 36 -10
94 -5 103 9 3 5 24 9 48 9 25 0 63 10 95 26 44 23 61 40 108 111 82 124 146
190 196 203 230 58 277 126 247 349 -13 89 -12 93 9 121 11 16 21 43 21 60 0
18 15 59 34 93 19 34 69 163 112 287 l77 225 9 535 c11 640 12 628 -87 1670
-14 146 -32 373 -40 505 -25 399 -49 621 -100 895 -39 214 -50 291 -65 450 -6
63 -13 130 -15 148 -3 27 -1 33 11 28 9 -3 22 -6 30 -6 8 0 25 -24 38 -53 13
-29 63 -107 112 -173 89 -120 125 -156 480 -482 313 -286 710 -568 1104 -781
63 -35 119 -67 124 -71 5 -5 -11 -45 -36 -92 -111 -205 -536 -1324 -574 -1510
-18 -91 -16 -270 5 -291 6 -6 11 -24 11 -39 0 -35 -43 -64 -107 -74 -53 -8
-103 -40 -123 -79 -27 -55 -17 -162 34 -340 66 -231 88 -393 82 -614 -3 -135
-8 -185 -21 -216 -21 -49 -15 -108 16 -141 54 -58 92 -40 107 52 9 54 19 77
54 123 70 89 105 151 127 221 11 36 40 130 65 210 25 80 53 175 62 212 9 37
20 66 24 63 4 -2 15 4 25 15 23 25 106 28 125 5 10 -12 24 -14 64 -9 51 7 51
7 283 245 128 130 253 261 277 290 76 95 165 247 298 514 72 143 218 420 325
617 l194 356 58 235 57 234 -53 238 -54 239 -137 225 c-88 146 -162 254 -207
305 -38 44 -112 127 -162 185 -187 215 -321 353 -436 450 -107 92 -415 303
-730 501 -192 121 -294 226 -302 310 -4 43 -32 103 -44 95 -13 -8 -34 23 -27
40 3 9 2 13 -3 10 -5 -3 -12 5 -16 17 -3 13 -10 32 -15 43 -5 11 -16 52 -24
90 -36 160 -86 336 -124 430 -84 213 -88 297 -25 585 20 94 29 119 34 100 4
-14 8 -20 8 -15 1 6 6 60 12 120 5 61 16 151 23 200 l13 90 2 -145 c1 -181 -6
-248 -28 -253 -15 -4 -15 -5 0 -6 9 0 22 6 29 14 21 26 39 182 40 342 l0 153
40 42 c45 47 94 142 105 201 l7 37 86 -91 c123 -131 637 -554 748 -616 30 -17
67 -27 107 -30 53 -4 67 -2 97 19 36 24 47 42 102 168 29 66 33 85 32 160 -1
157 -62 328 -238 674 -60 118 -118 250 -141 319 -37 110 -39 119 -22 128 22
13 13 29 -16 29 l-21 0 22 16 c26 18 20 38 -9 29 -10 -4 -19 -2 -19 3 0 5 9
12 21 15 25 7 16 27 -12 27 -10 0 -19 5 -19 10 0 6 7 10 15 10 8 0 15 7 15 15
0 9 -9 15 -22 15 -21 1 -21 2 -5 11 24 14 21 29 -5 30 -19 0 -32 19 -72 102
-46 94 -59 111 -200 257 -83 86 -162 164 -176 174 -34 24 -165 256 -199 353
-25 68 -31 78 -54 81 -21 3 -28 -2 -33 -23 -7 -27 -1 -84 11 -120 17 -49 -35
34 -66 105 -18 41 -36 79 -40 84 -12 13 -59 -21 -59 -43 0 -46 43 -179 76
-232 69 -114 28 -74 -81 79 -44 60 -58 70 -81 54 -25 -16 -24 -49 4 -105 25
-49 27 -59 14 -69 -34 -29 12 -132 131 -295 24 -32 49 -70 56 -84 7 -15 53
-66 102 -115 49 -48 89 -90 89 -94 0 -15 107 -85 154 -101 72 -24 126 -105 80
-123 -8 -3 -12 -11 -9 -17 4 -6 14 -8 23 -4 13 5 12 2 -3 -15 -18 -20 -18 -20
11 -20 27 -1 28 -2 10 -15 -18 -13 -14 -41 5 -30 5 4 9 1 9 -4 0 -6 -4 -11
-10 -11 -5 0 -10 -7 -10 -15 0 -8 8 -15 17 -15 13 0 14 -3 5 -12 -16 -16 -15
-28 2 -28 9 0 19 -29 30 -87 10 -49 28 -130 41 -182 27 -109 33 -110 -85 29
-39 47 -94 123 -122 170 -93 153 -228 350 -270 392 -45 45 -173 110 -264 133
-33 8 -95 14 -139 13 -60 -1 -93 4 -131 20 -29 11 -54 19 -56 16 -13 -12 -189
65 -234 103 -58 48 -120 223 -79 223 9 0 12 6 8 16 -5 14 -3 14 14 4 14 -9 32
-10 59 -4 21 4 55 7 74 5 26 -1 31 1 20 8 -8 5 -18 7 -22 4 -5 -2 -16 1 -24 8
-12 10 -17 10 -23 1 -4 -7 -15 -10 -25 -6 -11 4 -21 1 -26 -7 -7 -11 -12 -10
-28 5 -19 17 -21 17 -30 -1 -6 -10 -13 -15 -16 -12 -9 9 5 40 14 34 5 -3 13 2
19 12 9 17 10 17 28 0 24 -21 33 -22 33 -3 0 15 45 17 68 3 6 -5 12 -5 12 -1
0 3 8 0 17 -7 15 -12 16 -12 10 4 -4 10 -7 23 -7 29 0 6 -9 8 -19 5 -13 -3
-18 0 -15 8 3 7 1 16 -5 20 -6 3 -11 -1 -11 -11 0 -14 -2 -14 -16 -3 -13 10
-17 10 -24 -1 -7 -12 -12 -11 -28 3 -17 16 -20 16 -25 2 -7 -17 -16 -19 -35
-7 -20 13 -3 44 20 36 12 -4 24 -1 29 7 6 11 12 10 27 -4 18 -16 20 -17 26 -1
5 13 9 14 21 4 8 -7 15 -9 15 -4 0 4 7 -1 15 -12 13 -17 14 -17 15 -2 0 9 -5
20 -10 23 -6 4 -8 10 -5 15 8 13 -16 70 -30 70 -17 0 -25 -23 -14 -41 7 -12 9
-12 9 0 0 11 3 11 15 1 8 -7 15 -16 15 -21 0 -11 -42 -8 -57 4 -9 6 -18 5 -28
-3 -8 -6 -19 -9 -25 -5 -6 4 -17 1 -25 -5 -19 -16 -35 -4 -35 27 0 25 1 25 18
10 23 -21 32 -21 32 -2 0 17 26 20 35 5 4 -7 14 -2 26 11 21 25 24 35 9 44 -5
3 -10 -1 -10 -9 0 -9 -5 -16 -11 -16 -6 0 -9 7 -6 14 4 11 1 13 -11 9 -9 -4
-20 -11 -24 -17 -5 -7 -13 -5 -24 6 -16 16 -18 16 -31 0 -13 -16 -13 -15 -11
3 4 29 39 46 59 28 9 -7 19 -10 23 -6 13 13 50 9 64 -7 12 -13 13 -13 8 3 -3
10 -6 26 -6 35 0 14 -2 15 -9 3 -8 -12 -12 -12 -24 -3 -12 10 -18 10 -30 -3
-10 -9 -18 -11 -22 -5 -3 5 -1 10 6 10 10 0 10 3 1 12 -10 10 -15 10 -22 -1
-6 -11 -14 -12 -29 -5 -18 8 -18 11 -6 28 11 15 17 17 29 7 11 -9 15 -9 19 1
3 10 9 9 25 -5 15 -14 21 -15 25 -5 4 10 6 10 6 1 1 -7 6 -13 12 -13 6 0 8 9
3 23 -9 31 -11 32 -31 16 -11 -9 -14 -10 -9 -2 4 7 3 20 -2 29 -8 15 -10 15
-16 -1 -5 -14 -9 -15 -21 -5 -7 6 -11 18 -8 26 6 17 38 10 66 -14 10 -9 17
-10 17 -4 0 6 -5 14 -10 17 -6 4 -8 16 -5 28 5 16 4 18 -3 8 -6 -8 -18 -11
-31 -6 -23 7 -25 13 -11 35 8 13 10 12 10 -2 0 -20 15 -24 25 -8 7 11 -18 40
-34 40 -6 0 -11 7 -11 16 0 15 3 15 27 -1 24 -16 26 -16 20 0 -4 9 -7 19 -7
21 0 2 -7 4 -15 4 -17 0 -20 16 -5 25 6 3 11 0 11 -7 3 -26 17 88 18 142 1 80
-31 189 -65 219 -24 20 -27 30 -25 71 1 29 -4 60 -13 79 -9 16 -16 40 -16 52
0 46 -60 187 -124 291 -30 51 -120 133 -171 158 -123 59 -309 50 -502 -26 -78
-31 -201 -112 -240 -158 -59 -69 -103 -221 -103 -351 0 -65 24 -230 41 -283 6
-18 27 -54 46 -79 29 -38 34 -50 24 -65 -28 -45 -1 -160 54 -233 29 -37 109
-85 144 -85 11 0 22 -6 24 -12 4 -10 6 -9 6 1 1 11 4 11 17 0 15 -12 16 -11
10 11 -7 24 -6 24 8 6 11 -14 12 -22 3 -36 -6 -10 -15 -17 -19 -14 -4 3 -5 -2
-2 -10 6 -15 34 -11 34 5 0 13 28 11 36 -3 4 -7 3 -8 -4 -4 -7 4 -12 1 -12 -9
0 -9 -4 -13 -10 -10 -14 9 -12 -8 3 -24 9 -11 9 -13 0 -7 -8 5 -13 1 -13 -10
0 -10 3 -14 7 -11 3 4 12 2 19 -4 9 -8 11 -6 7 9 -3 12 1 19 11 19 12 0 15 -6
10 -21 -3 -12 -10 -25 -15 -30 -5 -6 -9 -17 -9 -25 1 -14 3 -13 14 1 7 10 17
14 21 10 5 -4 5 2 2 13 -7 20 -7 20 8 1 17 -22 20 -40 5 -31 -6 3 -7 -1 -4 -9
3 -9 2 -16 -4 -16 -6 0 -13 6 -15 13 -3 7 -6 5 -6 -6 -1 -25 42 -40 51 -18 4
9 7 11 7 4 1 -6 4 -19 8 -29 4 -12 3 -15 -5 -10 -7 4 -12 2 -12 -4 0 -6 -7
-18 -16 -27 -10 -11 -12 -19 -5 -26 6 -6 15 -4 27 7 21 21 27 16 18 -18 -5
-21 -9 -24 -20 -15 -12 10 -13 9 -8 -4 3 -9 14 -19 25 -22 21 -7 27 -51 8 -57
-9 -3 -8 -10 2 -25 11 -19 9 -29 -16 -78 -38 -76 -60 -93 -265 -204 -19 -10
-63 -22 -96 -26 l-61 -7 -44 51 c-24 28 -68 67 -98 87 -30 20 -77 55 -105 78
-28 22 -84 59 -124 80 -82 45 -432 304 -604 449 -120 100 -139 122 -222 254
-57 90 -237 275 -336 345 -36 26 -144 95 -240 154 -252 154 -500 335 -500 367
0 6 -16 28 -35 47 -19 19 -35 38 -35 42 0 4 -6 8 -12 8 -7 0 -20 15 -29 33 -9
17 -22 31 -28 30 -16 -4 -45 60 -76 167 -48 170 -90 235 -259 402 -82 82 -155
148 -162 148 -7 0 -18 -10 -25 -21z m4051 -2029 c0 -5 -4 -10 -10 -10 -5 0
-10 5 -10 10 0 6 5 10 10 10 6 0 10 -4 10 -10z m50 -140 c0 -5 -4 -10 -10 -10
-5 0 -10 5 -10 10 0 6 5 10 10 10 6 0 10 -4 10 -10z m652 -1875 c-2 -14 -6
-25 -8 -25 -2 0 -4 11 -4 25 0 14 4 25 9 25 4 0 6 -11 3 -25z m-75 -417 c-3
-8 -6 -5 -6 6 -1 11 2 17 5 13 3 -3 4 -12 1 -19z m-1432 -7258 c-3 -5 -12 -10
-18 -10 -7 0 -6 4 3 10 19 12 23 12 15 0z"/>
<path d="M3932 10438 c5 -15 28 -23 28 -10 0 5 -7 13 -16 16 -10 4 -14 1 -12
-6z"/>
<path d="M3970 10306 c0 -2 7 -9 15 -16 12 -10 15 -10 15 4 0 9 -7 16 -15 16
-8 0 -15 -2 -15 -4z"/>
<path d="M5342 8290 c0 -14 2 -19 5 -12 2 6 2 18 0 25 -3 6 -5 1 -5 -13z"/>
</g>
</svg>
