<?xml version="1.0" standalone="no"?>
<!DOCTYPE svg PUBLIC "-//W3C//DTD SVG 20010904//EN"
 "http://www.w3.org/TR/2001/REC-SVG-20010904/DTD/svg10.dtd">
<svg version="1.0" xmlns="http://www.w3.org/2000/svg"
 width="1013.000000pt" height="1280.000000pt" viewBox="0 0 1013.000000 1280.000000"
 preserveAspectRatio="xMidYMid meet">
<metadata>
Created by potrace 1.15, written by Peter Selinger 2001-2017
</metadata>
<g transform="translate(0.000000,1280.000000) scale(0.100000,-0.100000)"
fill="#000000" stroke="none">
<path d="M5804 9542 c3 -5 -30 -8 -72 -6 -81 3 -209 -13 -229 -28 -7 -6 -19
-5 -32 1 -30 16 -38 14 -80 -24 -38 -35 -39 -35 -71 -19 -25 13 -37 14 -56 5
-16 -7 -32 -7 -48 -1 -19 7 -30 5 -48 -10 -20 -15 -35 -17 -85 -13 -56 5 -62
3 -92 -23 -27 -24 -36 -46 -57 -128 -39 -154 -69 -211 -148 -281 -37 -33 -104
-93 -149 -134 -275 -248 -419 -341 -571 -367 -106 -19 -128 -25 -363 -100
-128 -41 -268 -77 -385 -100 -211 -41 -306 -67 -365 -101 -61 -36 -138 -124
-165 -191 -22 -56 -23 -65 -23 -387 -1 -310 -14 -575 -36 -725 -15 -101 -22
-481 -11 -625 6 -71 20 -173 31 -225 12 -52 24 -107 27 -121 6 -26 3 -28 -107
-64 -247 -81 -607 -237 -762 -329 -43 -25 -84 -46 -91 -46 -6 0 -41 -15 -76
-34 -36 -19 -98 -44 -138 -56 -52 -15 -87 -33 -122 -63 -27 -23 -100 -85 -162
-139 -186 -159 -408 -394 -494 -524 -33 -49 -37 -63 -36 -111 1 -29 12 -88 26
-131 13 -42 27 -93 31 -112 10 -48 29 -74 84 -114 25 -20 61 -47 78 -62 40
-33 234 -104 284 -104 20 0 55 6 77 14 30 11 56 12 108 6 38 -5 87 -6 109 -3
43 6 109 36 121 54 4 8 32 9 91 4 70 -6 88 -4 110 10 33 22 131 14 195 -15 54
-25 89 -25 136 -1 24 12 71 21 134 26 89 6 102 5 160 -18 l63 -26 56 19 c65
22 147 16 231 -16 39 -15 55 -17 97 -8 33 7 56 7 68 0 10 -5 72 -12 139 -16
105 -6 130 -10 179 -35 31 -15 68 -27 81 -25 69 5 289 -6 364 -19 57 -9 72 -8
120 8 90 31 234 45 680 67 l105 5 95 -49 c52 -27 138 -72 190 -99 52 -28 122
-65 154 -82 32 -17 68 -31 80 -31 12 0 40 -13 64 -29 34 -23 58 -31 120 -36
65 -7 95 -16 191 -63 124 -61 196 -75 264 -53 28 10 51 9 117 -5 101 -20 161
-14 250 26 108 49 204 82 230 81 137 -8 176 -4 230 21 70 33 166 45 315 39 67
-2 268 16 300 27 91 33 393 66 515 57 47 -3 114 -6 150 -6 36 1 100 1 144 1
43 1 86 5 95 10 9 5 23 5 32 0 10 -6 35 -3 67 7 41 13 58 14 89 5 59 -17 178
-24 210 -11 15 6 66 11 113 10 75 -2 91 1 135 25 28 14 91 41 141 59 50 18
102 39 115 48 13 8 49 20 79 27 176 38 344 105 361 144 5 11 15 29 21 39 11
16 9 22 -17 43 -48 40 -72 47 -105 28 -26 -16 -30 -16 -61 3 -47 29 -174 55
-299 63 -131 8 -194 32 -279 106 -74 65 -128 94 -172 94 -52 0 -113 -35 -138
-80 -33 -59 -65 -80 -104 -69 -17 5 -40 6 -49 3 -10 -3 -25 2 -34 10 -18 18
-40 21 -49 6 -10 -16 -106 0 -134 21 -27 22 -54 24 -99 8 -24 -8 -41 -8 -69 2
-21 7 -56 14 -78 15 -22 2 -74 5 -116 8 -203 13 -378 53 -422 98 -31 30 -47
34 -78 18 -15 -8 -26 -7 -47 6 -26 15 -31 15 -59 0 -25 -12 -37 -13 -63 -4
-24 8 -45 8 -84 -2 -35 -8 -59 -9 -76 -2 -18 7 -35 6 -55 -2 -48 -20 -114 -27
-136 -15 -16 8 -25 7 -39 -6 -18 -17 -33 -16 -92 1 -11 3 -27 -7 -45 -26 -26
-30 -31 -31 -78 -25 -45 5 -55 3 -95 -24 -25 -17 -57 -31 -72 -31 -15 0 -51
-6 -81 -14 -72 -19 -170 -13 -207 14 -16 11 -44 20 -64 20 -45 0 -80 22 -96
60 -9 21 -19 30 -34 30 -13 0 -33 12 -47 26 -13 14 -41 35 -62 45 -38 20 -77
70 -77 101 0 23 -38 48 -71 48 -15 0 -40 10 -56 23 -15 13 -43 32 -61 43 -18
10 -42 33 -53 50 -12 20 -35 37 -62 47 -102 37 -130 50 -267 129 -80 47 -163
96 -185 110 -22 13 -85 48 -140 77 -55 28 -107 60 -117 71 -9 11 -21 20 -26
20 -11 0 -37 93 -47 165 -8 61 -60 168 -125 255 -77 103 -107 128 -323 261
-147 90 -272 241 -313 376 -12 40 -12 56 1 122 24 115 102 238 235 371 119
119 266 240 291 240 20 0 159 135 209 202 19 26 39 48 43 48 5 0 36 -20 70
-44 34 -24 78 -51 97 -59 19 -8 65 -44 103 -80 55 -53 94 -79 210 -138 78 -39
160 -84 182 -99 35 -24 279 -146 505 -253 41 -19 129 -74 195 -121 66 -48 152
-102 190 -121 69 -33 102 -45 361 -123 72 -22 152 -54 179 -71 62 -39 122 -58
212 -66 49 -5 81 -13 97 -26 32 -26 106 -58 131 -59 11 0 40 -13 65 -30 24
-16 64 -32 87 -36 55 -8 133 -86 133 -134 0 -16 5 -30 10 -30 6 0 10 -12 10
-26 0 -15 13 -54 29 -88 17 -33 37 -77 46 -96 8 -19 33 -59 55 -89 21 -29 48
-81 60 -116 24 -73 74 -155 94 -155 24 0 46 47 46 97 0 36 -10 68 -40 127 -37
73 -49 116 -33 116 15 0 93 -42 93 -51 0 -5 12 -9 27 -9 45 0 161 -49 197 -84
34 -31 34 -33 41 -146 7 -101 10 -116 31 -137 29 -29 44 -22 45 20 0 18 6 64
12 104 l12 72 60 -40 c53 -36 64 -40 99 -34 22 3 42 8 44 10 2 2 -44 50 -102
107 -74 72 -106 111 -106 127 0 13 -9 35 -19 50 -11 15 -23 45 -27 66 -5 27
-19 52 -43 75 -20 19 -45 52 -55 73 -11 21 -38 54 -60 74 -22 20 -49 55 -60
77 -12 23 -33 47 -47 53 -15 7 -46 39 -70 70 -60 80 -128 152 -159 168 -14 7
-47 16 -75 20 -43 6 -57 14 -98 57 -48 49 -98 78 -136 78 -11 0 -21 3 -23 8
-1 4 -37 22 -78 41 -97 43 -228 109 -260 131 -14 10 -54 32 -88 49 -35 18 -82
49 -105 70 -23 21 -53 41 -67 44 -14 4 -55 25 -90 48 -36 23 -87 54 -114 68
-32 17 -57 39 -69 61 -10 19 -42 78 -72 130 -29 52 -59 113 -65 135 -18 57
-44 90 -87 110 -21 10 -49 26 -62 36 -13 11 -32 19 -43 19 -47 0 -113 31 -131
61 -14 26 -22 30 -44 26 -20 -4 -36 2 -56 19 -16 13 -38 26 -50 28 -98 18
-134 29 -152 46 -18 16 -53 31 -165 70 -19 7 -43 17 -52 21 -10 5 -37 9 -61 9
-24 0 -52 7 -63 15 -10 8 -29 15 -41 15 -44 0 -74 25 -133 105 -33 46 -91 111
-129 147 -48 44 -72 75 -79 100 -5 20 -7 39 -4 42 14 14 29 3 42 -29 8 -19 21
-35 29 -35 14 0 14 -1 1 -10 -10 -7 11 -10 70 -11 117 -2 159 -5 167 -12 3 -4
1 -7 -5 -7 -7 0 -12 -4 -12 -9 0 -6 16 -7 37 -4 26 4 34 3 29 -5 -5 -9 13 -12
65 -12 63 0 70 -2 59 -15 -12 -14 -2 -15 85 -10 55 3 96 3 93 -1 -4 -3 -2 -12
4 -18 8 -9 25 -10 57 -4 25 4 62 10 80 13 94 15 274 100 268 127 -1 6 12 12
28 15 60 8 75 26 30 37 -33 8 -23 33 22 51 29 12 34 19 33 47 -1 57 3 68 22
68 10 0 18 4 18 9 0 5 9 13 20 16 14 4 20 15 20 36 0 16 8 37 18 47 20 22 23
31 27 97 2 27 8 51 14 53 6 2 11 18 11 36 0 18 7 53 16 79 12 35 15 75 12 159
-3 103 -5 117 -30 153 -26 39 -27 42 -19 134 5 52 5 108 1 125 -13 59 -89 180
-104 165 -4 -3 7 -23 24 -44 42 -53 37 -59 -11 -13 -22 21 -58 50 -79 63 -21
13 -41 29 -45 35 -3 6 -10 8 -15 5 -9 -5 -69 20 -80 34 -3 3 -18 6 -35 6 -16
1 -43 4 -58 8 -16 4 -26 4 -23 -1z m43 -18 c-3 -3 -12 -4 -19 -1 -8 3 -5 6 6
6 11 1 17 -2 13 -5z m-284 -55 c-13 -12 -46 -15 -50 -3 -2 6 9 11 27 11 17 0
27 -4 23 -8z m-2144 -4576 c31 -21 85 -62 121 -92 35 -29 88 -70 118 -89 l53
-36 -49 -23 c-30 -14 -60 -38 -75 -61 -39 -55 -61 -66 -97 -48 -17 8 -44 18
-62 21 -18 4 -37 10 -42 13 -5 3 -35 6 -66 6 -45 2 -74 11 -139 43 -74 37 -85
40 -118 31 -40 -11 -33 -12 -221 26 -188 38 -189 39 -112 64 36 12 108 28 160
36 77 11 115 24 202 66 94 46 186 75 252 79 11 0 45 -16 75 -36z"/>
</g>
</svg>
