<?xml version="1.0" standalone="no"?>
<!DOCTYPE svg PUBLIC "-//W3C//DTD SVG 20010904//EN"
 "http://www.w3.org/TR/2001/REC-SVG-20010904/DTD/svg10.dtd">
<svg version="1.0" xmlns="http://www.w3.org/2000/svg"
 width="888.000000pt" height="1280.000000pt" viewBox="0 0 888.000000 1280.000000"
 preserveAspectRatio="xMidYMid meet">
<metadata>
Created by potrace 1.15, written by Peter Selinger 2001-2017
</metadata>
<g transform="translate(0.000000,1280.000000) scale(0.100000,-0.100000)"
fill="#000000" stroke="none">
<path d="M7055 12500 c-77 -5 -100 -11 -162 -42 -39 -20 -97 -54 -130 -76 -32
-21 -78 -49 -103 -62 -75 -37 -210 -122 -210 -132 0 -18 -41 14 -124 97 -83
84 -110 98 -144 76 -12 -7 -11 -14 2 -40 l17 -31 -29 0 c-25 0 -73 -34 -61
-44 2 -2 31 -20 63 -41 54 -33 58 -38 40 -48 -20 -11 -43 -37 -44 -49 0 -3 14
-9 31 -13 16 -4 28 -12 26 -18 -2 -8 -39 -13 -108 -14 -66 0 -93 2 -74 7 24 6
17 8 -35 9 -63 1 -64 2 -38 15 16 8 45 17 65 19 31 3 28 4 -17 6 -41 2 -50 5
-35 11 36 15 -1 11 -162 -21 -213 -42 -273 -71 -379 -181 -107 -112 -171 -209
-178 -270 -3 -27 -1 -50 4 -53 15 -9 2 -25 -20 -25 -25 0 -35 -17 -20 -35 9
-10 9 -19 2 -27 -13 -17 -58 -172 -54 -190 1 -3 -6 -12 -16 -20 -16 -12 -16
-11 -2 7 15 20 15 20 -9 0 -12 -11 -27 -29 -33 -40 -7 -14 -3 -13 11 5 25 30
26 21 6 -45 -54 -174 -60 -347 -19 -508 37 -147 73 -213 171 -315 l84 -87 -82
99 c-75 92 -140 201 -139 236 1 8 12 -6 25 -32 14 -26 29 -49 34 -53 6 -3 -1
14 -15 39 -24 44 -70 203 -61 213 3 2 11 -22 18 -54 14 -65 52 -144 104 -217
45 -63 45 -82 -1 -31 -27 31 -31 33 -15 9 20 -31 51 -61 58 -56 1 1 3 -1 4 -5
0 -5 9 -17 19 -28 10 -11 25 -36 34 -55 59 -129 246 -288 371 -315 29 -6 29
-6 10 9 -24 18 -15 20 19 4 l26 -11 -28 -15 c-15 -8 -48 -18 -73 -23 -25 -4
-94 -28 -154 -53 -82 -34 -121 -58 -165 -98 -32 -29 -102 -84 -156 -123 -113
-81 -180 -156 -311 -346 -109 -158 -178 -239 -203 -239 -10 0 -58 -42 -109
-97 -79 -86 -91 -95 -91 -72 0 14 -3 29 -7 32 -3 4 -31 -20 -60 -53 -47 -52
-58 -59 -80 -54 -24 6 -25 5 -20 -18 8 -29 -12 -50 -86 -93 -38 -22 -45 -30
-36 -41 6 -8 18 -14 26 -14 29 0 4 -26 -88 -93 -51 -37 -97 -75 -100 -85 -16
-43 -97 -88 -257 -143 -189 -66 -289 -120 -591 -323 -157 -106 -322 -213 -366
-238 -145 -83 -344 -178 -350 -168 -11 18 -33 11 -178 -59 -96 -45 -146 -74
-149 -87 -3 -12 -60 -50 -144 -98 -76 -43 -211 -128 -299 -189 -87 -60 -175
-116 -193 -124 -19 -8 -37 -23 -39 -34 -3 -11 -28 -31 -55 -45 -96 -49 -325
-253 -301 -267 45 -26 123 -9 173 37 23 22 195 116 211 116 4 0 -10 -17 -30
-38 -61 -63 -231 -316 -231 -343 0 -5 19 -9 42 -9 40 0 48 5 127 83 46 45 81
77 77 70 -12 -22 -32 -164 -24 -169 5 -3 22 -3 38 1 30 7 68 58 85 115 13 42
85 149 116 171 34 24 37 18 10 -20 -27 -37 -57 -159 -43 -173 19 -19 64 15 94
71 40 77 95 141 120 141 22 0 109 57 288 188 70 52 117 96 142 131 21 30 48
59 60 66 13 6 46 25 73 42 28 17 78 41 112 54 42 16 63 30 65 43 5 28 40 40
978 332 190 58 368 117 396 129 71 31 244 150 338 231 54 48 85 68 100 66 15
-2 56 23 126 78 57 44 113 80 125 80 37 0 265 188 265 218 0 16 131 162 141
157 3 -2 11 -28 18 -57 10 -41 10 -106 4 -278 -9 -211 -11 -229 -35 -280 -38
-82 -59 -150 -57 -184 2 -26 -19 -89 -50 -146 -4 -8 -23 -27 -42 -42 -32 -26
-49 -30 -236 -53 -220 -27 -273 -37 -378 -67 -133 -38 -291 -112 -391 -184
-103 -73 -223 -226 -224 -286 0 -10 -14 -40 -30 -67 -58 -94 -92 -205 -97
-316 -6 -117 9 -197 59 -332 42 -111 82 -178 171 -290 l68 -85 -40 -62 c-21
-34 -62 -105 -91 -157 -29 -52 -67 -111 -86 -131 -41 -46 -64 -90 -64 -123 0
-18 -7 -28 -25 -35 -16 -6 -23 -14 -19 -25 8 -21 -73 -145 -103 -156 -13 -5
-22 -14 -21 -21 2 -7 -3 -12 -11 -10 -9 2 -11 -3 -7 -14 9 -24 -92 -147 -116
-141 -10 3 -21 1 -24 -4 -3 -5 2 -9 12 -9 14 0 14 -3 4 -15 -10 -12 -16 -13
-28 -3 -13 11 -14 10 -8 -8 5 -15 -2 -30 -26 -55 -18 -20 -45 -50 -61 -68 -17
-21 -33 -31 -43 -27 -11 4 -14 1 -9 -13 7 -24 -14 -39 -27 -20 -8 11 -8 10 -4
-4 7 -21 -51 -100 -66 -91 -5 3 -7 1 -6 -4 5 -17 -43 -73 -60 -70 -12 2 -18
-7 -22 -33 -4 -20 -17 -51 -31 -70 -13 -19 -31 -47 -40 -64 -9 -16 -26 -31
-38 -33 -16 -3 -19 -7 -12 -16 6 -7 6 -17 0 -26 -8 -13 -10 -13 -19 0 -9 12
-10 12 -8 -5 3 -29 -23 -65 -48 -65 -73 0 -312 -198 -455 -377 -31 -38 -97
-149 -148 -246 -96 -182 -119 -213 -317 -428 -91 -98 -116 -132 -148 -195 -25
-49 -26 -50 -89 -63 -76 -15 -133 -54 -245 -166 -68 -68 -72 -75 -72 -117 0
-39 -8 -56 -63 -134 -35 -49 -69 -98 -75 -110 -6 -11 -48 -47 -94 -79 -89 -61
-129 -108 -153 -176 -17 -48 -19 -138 -5 -190 9 -33 6 -42 -55 -145 -35 -60
-97 -162 -137 -227 -40 -65 -85 -138 -100 -162 -61 -100 -73 -194 -37 -292 17
-44 38 -74 90 -125 56 -55 90 -78 203 -134 118 -59 145 -69 202 -72 l65 -4 65
68 c41 45 68 83 75 109 7 22 22 68 35 102 26 68 32 164 12 208 -12 27 -10 33
134 333 48 100 50 102 83 102 32 0 51 6 120 36 17 7 68 24 114 39 192 59 339
184 301 255 -10 19 -6 27 39 71 70 69 168 220 246 382 86 178 148 259 331 437
82 80 194 197 249 259 55 63 133 138 173 168 49 36 79 67 90 91 9 21 27 51 38
67 50 70 76 136 74 189 -3 73 -2 79 16 72 12 -5 15 -2 10 9 -12 33 84 191 110
181 8 -3 14 -1 14 4 0 6 -5 10 -11 10 -5 0 -7 5 -4 11 4 6 13 8 21 5 9 -3 14
0 12 7 -2 7 22 41 52 75 39 44 60 62 73 58 14 -3 16 -1 7 8 -12 16 12 42 29
31 6 -3 9 0 6 7 -10 24 125 125 159 120 17 -2 18 -1 6 8 -13 9 -13 11 0 19 8
5 18 7 22 5 5 -3 11 2 14 10 8 20 143 109 169 112 11 1 19 7 17 14 -2 8 3 10
12 7 9 -4 20 1 25 11 11 20 152 112 172 112 8 0 20 9 27 21 7 12 16 18 19 15
10 -10 77 31 113 69 30 32 164 151 265 237 l32 27 111 -142 c135 -173 177
-220 452 -512 282 -298 341 -367 330 -380 -11 -14 26 -79 40 -70 5 3 25 -18
43 -47 42 -66 52 -92 34 -85 -10 4 -13 -1 -10 -17 3 -16 -3 -28 -23 -41 -57
-37 -111 -96 -131 -142 -81 -187 -84 -226 -31 -413 20 -69 43 -156 52 -195 9
-38 30 -98 46 -131 26 -53 30 -73 30 -145 0 -45 5 -109 12 -141 11 -55 10 -68
-20 -186 -47 -189 -48 -200 -18 -275 58 -145 86 -272 73 -332 -5 -22 -7 -80
-4 -130 3 -79 10 -106 55 -223 39 -101 52 -147 52 -187 0 -66 31 -186 109
-424 88 -267 157 -373 287 -437 54 -26 68 -29 164 -29 104 0 106 0 192 43 118
59 159 99 213 206 49 96 54 134 30 193 -8 19 -15 45 -15 57 0 25 -82 210 -110
247 -32 44 -87 219 -95 299 -5 59 -2 93 14 160 33 137 66 377 66 485 0 92 -2
105 -31 160 -17 33 -43 94 -57 135 -14 41 -29 89 -35 105 -10 28 -34 114 -68
240 -9 32 -14 107 -14 214 0 157 5 205 36 370 17 90 17 146 0 234 -8 44 -9 67
-3 67 6 0 3 6 -7 13 -17 13 -18 19 -5 102 11 74 16 89 33 93 20 5 20 6 0 13
-17 7 -17 8 -1 8 10 1 15 6 12 11 -4 6 -11 7 -17 4 -8 -5 -9 1 -5 17 4 13 10
63 13 111 4 48 10 87 13 86 20 -2 23 4 8 14 -9 8 -20 37 -25 71 -9 57 -9 57
11 40 21 -18 17 -5 -7 26 -6 8 -11 42 -11 75 0 69 -42 176 -69 176 -10 0 -42
55 -90 153 -92 188 -413 773 -508 925 -92 149 -216 321 -289 404 l-60 67 60
107 c33 58 71 114 85 125 49 39 206 328 206 380 0 15 9 48 20 73 10 25 22 70
26 99 4 28 16 70 27 92 11 22 27 62 37 90 l17 50 49 3 c43 3 55 9 95 48 25 25
72 57 106 73 33 16 71 42 84 59 20 26 37 34 94 46 61 12 75 20 105 54 19 22
56 49 83 60 53 24 121 89 192 186 27 36 58 67 71 70 12 3 25 15 29 26 4 13 18
21 43 25 131 21 257 90 373 205 69 69 99 119 99 168 0 17 -11 77 -25 134 -13
57 -29 141 -35 188 -6 47 -24 159 -40 250 -45 258 -54 348 -47 509 10 230 13
242 140 498 68 136 127 271 146 333 55 174 61 188 119 268 30 42 79 111 108
152 53 76 211 230 236 230 17 0 57 42 138 145 38 48 69 79 79 78 17 -3 44 34
135 184 30 51 53 99 50 106 -2 7 23 71 58 142 49 102 62 140 63 180 1 30 18
98 43 171 47 135 52 186 22 244 -37 73 -196 180 -393 265 -217 94 -320 121
-578 150 -123 15 -147 20 -172 41 -16 13 -40 24 -53 24 -14 0 -42 9 -64 20
-56 29 -104 36 -205 30z m-1110 -401 c-44 -14 -168 -39 -172 -35 -2 1 25 11
59 21 35 9 68 19 73 20 6 2 24 3 40 3 l30 0 -30 -9z m3 -36 c-10 -2 -28 -2
-40 0 -13 2 -5 4 17 4 22 1 32 -1 23 -4z m1279 -19 c41 -9 84 -13 110 -9 62 9
144 -34 300 -156 112 -89 172 -126 248 -154 20 -7 20 -7 -1 -17 -12 -5 -39
-41 -60 -79 -39 -69 -43 -72 -84 -55 -11 5 -22 -9 -41 -53 -23 -51 -30 -59
-48 -54 -22 6 -28 -6 -11 -23 8 -8 -3 -30 -35 -72 -25 -34 -45 -64 -45 -66 0
-2 11 -7 25 -10 l25 -6 -53 -68 c-79 -100 -97 -128 -97 -151 0 -28 -107 -140
-210 -219 -124 -97 -164 -132 -216 -196 -43 -52 -49 -56 -63 -41 -12 12 -16
37 -16 108 1 99 25 199 71 289 13 26 29 70 35 98 9 45 8 57 -12 108 -31 76
-78 147 -133 201 -36 35 -44 50 -40 68 6 21 3 23 -27 24 -19 0 -43 4 -54 9
-19 8 -19 9 3 9 23 1 30 19 10 26 -7 2 -34 6 -59 10 -26 3 -54 12 -64 18 -14
11 -6 12 49 9 36 -2 66 0 66 4 0 5 -35 20 -77 34 -81 27 -115 55 -46 39 21 -5
45 -9 53 -9 13 0 13 1 0 10 -12 8 -9 10 13 10 45 0 27 22 -34 42 -30 10 -72
34 -94 54 -22 19 -33 32 -25 28 13 -7 13 -5 1 9 -7 9 -19 17 -25 17 -16 0 -79
40 -73 46 3 3 16 -2 29 -10 14 -9 27 -13 31 -10 4 4 21 -4 39 -18 35 -26 90
-57 73 -41 -28 28 -149 106 -197 128 -35 16 -97 31 -169 41 -63 9 -116 18
-119 21 -3 3 18 3 45 -1 28 -4 86 -9 130 -12 44 -3 101 -14 127 -25 26 -10 67
-19 93 -19 25 0 56 -6 68 -14 12 -8 62 -17 112 -21 l90 -7 65 43 c36 23 96 55
133 71 37 15 78 34 90 43 12 8 22 15 24 15 1 0 32 -7 70 -16z m-1672 -84 c-3
-5 -16 -15 -28 -21 -21 -10 -21 -9 2 10 25 23 36 27 26 11z m-341 -1297 c9
-18 14 -33 12 -33 -6 0 -36 55 -36 66 0 11 5 3 24 -33z m116 -133 c12 -16 19
-30 16 -30 -2 0 -14 14 -26 30 -12 17 -19 30 -16 30 2 0 14 -13 26 -30z m283
-331 c100 -73 102 -77 22 -35 -128 66 -209 146 -290 286 -4 8 37 -33 93 -92
56 -58 135 -130 175 -159z m-62 165 c21 -24 22 -26 3 -16 -25 13 -50 42 -37
42 5 0 20 -12 34 -26z m101 -116 c65 -35 149 -108 122 -108 -8 0 -83 54 -124
90 -37 32 -36 37 2 18z m-93 -272 c-2 -2 -15 -9 -29 -16 -23 -12 -24 -12 -11
3 7 10 20 17 29 17 8 0 13 -2 11 -4z m1208 -2202 c-3 -3 -12 -4 -19 -1 -8 3
-5 6 6 6 11 1 17 -2 13 -5z m-3822 -3033 c3 -5 1 -12 -5 -16 -5 -3 -10 1 -10
9 0 18 6 21 15 7z"/>
<path d="M6093 12093 c9 -2 25 -2 35 0 9 3 1 5 -18 5 -19 0 -27 -2 -17 -5z"/>
<path d="M5601 4034 c0 -11 3 -14 6 -6 3 7 2 16 -1 19 -3 4 -6 -2 -5 -13z"/>
</g>
</svg>
